<?xml version="1.0" encoding="UTF-8" standalone="no"?>
<svg
   height="800"
   width="1200"
   viewBox="-82.44435 -35.9305 714.5177 215.583"
   version="1.1"
   id="svg3"
   sodipodi:docname="Blender.svg"
   xmlns:inkscape="http://www.inkscape.org/namespaces/inkscape"
   xmlns:sodipodi="http://sodipodi.sourceforge.net/DTD/sodipodi-0.dtd"
   xmlns="http://www.w3.org/2000/svg"
   xmlns:svg="http://www.w3.org/2000/svg">
  <defs
     id="defs3" />
  <sodipodi:namedview
     id="namedview3"
     pagecolor="#ffffff"
     bordercolor="#000000"
     borderopacity="0.25"
     inkscape:showpageshadow="2"
     inkscape:pageopacity="0.0"
     inkscape:pagecheckerboard="0"
     inkscape:deskcolor="#d1d1d1" />
  <g
     stroke-width="0"
     id="g3">
    <path
       d="m 92.234,80.804 c 0.328,-5.895 3.22,-11.094 7.574,-14.78 4.278,-3.622 10.032,-5.829 16.31,-5.833 6.276,0.004 12.03,2.211 16.308,5.832 4.355,3.687 7.246,8.886 7.578,14.781 0.332,6.062 -2.102,11.7 -6.379,15.871 -4.356,4.246 -10.563,6.914 -17.504,6.914 -6.945,0 -13.156,-2.668 -17.516,-6.914 -4.273,-4.172 -6.707,-9.809 -6.37,-15.87 z"
       fill="#005385"
       id="path1" />
    <path
       d="m 54.191,92.741 c 0.04,2.301 0.782,6.786 1.883,10.297 2.32,7.414 6.258,14.278 11.742,20.328 5.625,6.211 12.543,11.207 20.543,14.746 8.41,3.727 17.524,5.63 26.973,5.61 9.453,-0.016 18.562,-1.949 26.972,-5.699 7.993,-3.578 14.911,-8.586 20.532,-14.813 5.476,-6.074 9.406,-12.949 11.73,-20.367 a 51.442,51.442 0 0 0 2.207,-11.367 51.794,51.794 0 0 0 -0.363,-11.289 c -1.043,-7.332 -3.582,-14.215 -7.484,-20.489 -3.583,-5.76 -8.184,-10.808 -13.66,-15.058 L 155.273,44.632 100.011,2.195 A 7.93,7.93 0 0 0 99.871,2.077 C 96.234,-0.7 90.141,-0.692 86.156,2.097 82.117,4.921 81.664,9.581 85.246,12.53 l -0.012,0.008 23.051,18.75 -70.266,0.074 h -0.097 c -5.805,0.004 -11.383,3.821 -12.492,8.633 -1.13,4.907 2.816,8.973 8.851,8.996 l -0.008,0.024 35.614,-0.07 -63.555,48.777 c -0.078,0.062 -0.164,0.121 -0.242,0.183 -5.989,4.59 -7.93,12.227 -4.157,17.06 3.836,4.913 11.981,4.917 18.04,0.02 l 34.683,-28.38 c 0,0 -0.504,3.832 -0.465,6.136 z m 89.121,12.825 c -7.144,7.29 -17.144,11.414 -27.976,11.433 -10.836,0.02 -20.84,-4.074 -27.989,-11.344 -3.492,-3.546 -6.058,-7.613 -7.644,-11.96 A 31.105,31.105 0 0 1 77.95,80.34 31.591,31.591 0 0 1 81.782,67.758 c 2.09,-3.789 4.961,-7.21 8.504,-10.109 6.945,-5.664 15.785,-8.727 25.043,-8.739 9.258,-0.01 18.094,3.028 25.043,8.668 3.54,2.883 6.41,6.293 8.496,10.075 a 31.594,31.594 0 0 1 3.84,12.57 31.133,31.133 0 0 1 -1.758,13.36 c -1.582,4.351 -4.145,8.425 -7.637,11.984 z"
       fill="#ff7021"
       id="path2" />
    <path
       d="m 470.883,80.718 c 0.54,-5.957 5.144,-9.734 12.171,-9.734 7.036,0 11.637,3.777 12.18,9.734 z m 23.628,14.695 c -1.804,4.418 -6.043,7.032 -11.812,7.032 -7.219,0 -12.082,-4.508 -12.262,-11.629 h 41.481 v -2.094 c 0,-17.832 -10.46,-27.856 -29.219,-27.856 -18.215,0 -29.219,10.118 -29.219,25.985 0,15.957 11.18,26.054 29.22,26.054 10.815,0 19.218,-3.703 24.401,-10.234 z M 286.773,80.745 c 0.551,-5.957 5.145,-9.73 12.18,-9.73 7.027,0 11.633,3.773 12.172,9.73 z m 23.63,14.7 c -1.802,4.417 -6.044,7.031 -11.813,7.031 -7.215,0 -12.086,-4.512 -12.266,-11.633 h 41.48 v -2.09 c 0,-17.832 -10.464,-27.859 -29.214,-27.859 -18.223,0 -29.215,10.121 -29.215,25.984 0,15.961 11.172,26.06 29.215,26.06 10.816,0 19.218,-3.704 24.402,-10.236 z M 250.687,50.09 h 14.97 v 61.214 h -14.97 z m 80.836,16.257 h 15.047 v 3.648 c 5.34,-5.683 11.727,-8.554 18.938,-8.554 8.316,0 14.61,2.871 17.86,7.761 2.706,4.043 2.886,8.918 2.886,15.332 v 26.77 h -15.07 V 87.777 c 0,-9.75 -1.962,-14.262 -10.528,-14.262 -8.664,0 -14.086,5.156 -14.086,13.812 v 23.977 h -15.047 z m 103.184,21.254 c 0,8.383 -5.598,13.88 -14.25,13.88 -8.664,0 -14.258,-5.314 -14.258,-13.783 0,-8.589 5.508,-13.902 14.258,-13.902 8.652,0 14.25,5.4 14.25,13.805 z m 0,-19.21 c -3.793,-4.079 -9.297,-6.318 -16.957,-6.318 -16.492,0 -27.778,10.188 -27.778,25.442 0,14.953 11.192,25.414 27.504,25.414 7.49,0 12.99,-1.887 17.231,-6.133 v 4.508 h 15.058 V 46.202 l -15.058,3.887 z m -218.215,5.405 c 8.746,0 14.246,5.313 14.246,13.902 0,8.47 -5.59,13.782 -14.246,13.782 -8.656,0 -14.25,-5.496 -14.25,-13.879 0,-8.406 5.594,-13.805 14.25,-13.805 z m -14.25,-23.707 -15.063,-3.887 v 65.102 h 15.063 v -4.508 c 4.238,4.246 9.738,6.133 17.223,6.133 16.32,0 27.503,-10.46 27.503,-25.414 0,-15.254 -11.269,-25.442 -27.773,-25.442 -7.668,0 -13.164,2.24 -16.953,6.317 z m 313.394,61.215 V 66.347 h 15.06 v 2.777 c 4.507,-5.426 9.28,-8.129 14.694,-8.129 1.086,0 2.434,0.176 4.24,0.356 v 12.812 c -1.443,-0.187 -3.064,-0.187 -4.779,-0.187 -8.75,0 -14.156,5.773 -14.156,15.597 v 21.731 z"
       fill="#005385"
       id="path3" />
  </g>
</svg>
